<svg width="20" height="20" viewBox="0 0 20 20" fill="none" xmlns="http://www.w3.org/2000/svg">
<path d="M2.43903 5.00033H4.06504M4.06504 5.00033H17.0732M4.06504 5.00033L4.06504 16.667C4.06504 17.109 4.23635 17.5329 4.54129 17.8455C4.84623 18.1581 5.25981 18.3337 5.69106 18.3337H13.8211C14.2524 18.3337 14.666 18.1581 14.9709 17.8455C15.2758 17.5329 15.4472 17.109 15.4472 16.667V5.00033M6.50407 5.00033V3.33366C6.50407 2.89163 6.67538 2.46771 6.98032 2.15515C7.28525 1.84259 7.69884 1.66699 8.13008 1.66699H11.3821C11.8134 1.66699 12.2269 1.84259 12.5319 2.15515C12.8368 2.46771 13.0081 2.89163 13.0081 3.33366V5.00033" stroke="#D22727" stroke-width="1.6" stroke-linecap="round" stroke-linejoin="round"/>
</svg>
