<svg width="14" height="14" viewBox="0 0 14 14" fill="none" xmlns="http://www.w3.org/2000/svg">
<g clip-path="url(#clip0_658_4420)">
<path d="M9.9165 1.74985C10.0697 1.59664 10.2516 1.47511 10.4518 1.39219C10.652 1.30928 10.8665 1.2666 11.0832 1.2666C11.2998 1.2666 11.5144 1.30928 11.7146 1.39219C11.9147 1.47511 12.0966 1.59664 12.2498 1.74985C12.403 1.90306 12.5246 2.08494 12.6075 2.28512C12.6904 2.4853 12.7331 2.69985 12.7331 2.91652C12.7331 3.13319 12.6904 3.34774 12.6075 3.54791C12.5246 3.74809 12.403 3.92998 12.2498 4.08318L4.37484 11.9582L1.1665 12.8332L2.0415 9.62485L9.9165 1.74985Z" stroke="currentColor" stroke-width="1.6" stroke-linecap="round" stroke-linejoin="round"/>
</g>
<defs>
<clipPath id="clip0_658_4420">
<rect width="14" height="14" fill="white"/>
</clipPath>
</defs>
</svg>
