<svg width="16" height="16" viewBox="0 0 16 16" fill="none" xmlns="http://www.w3.org/2000/svg">
<g clip-path="url(#clip0_913_8628)">
<path d="M7.33337 2.66714H2.66671C2.31309 2.66714 1.97395 2.80762 1.7239 3.05767C1.47385 3.30772 1.33337 3.64685 1.33337 4.00048V13.3338C1.33337 13.6874 1.47385 14.0266 1.7239 14.2766C1.97395 14.5267 2.31309 14.6671 2.66671 14.6671H12C12.3537 14.6671 12.6928 14.5267 12.9428 14.2766C13.1929 14.0266 13.3334 13.6874 13.3334 13.3338V8.66714M12.3334 1.66714C12.5986 1.40193 12.9583 1.25293 13.3334 1.25293C13.7084 1.25293 14.0682 1.40193 14.3334 1.66714C14.5986 1.93236 14.7476 2.29207 14.7476 2.66714C14.7476 3.04222 14.5986 3.40193 14.3334 3.66714L8.00004 10.0005L5.33337 10.6671L6.00004 8.00048L12.3334 1.66714Z" stroke="#ABABAB" stroke-width="1.6" stroke-linecap="round" stroke-linejoin="round"/>
</g>
<defs>
<clipPath id="clip0_913_8628">
<rect width="16" height="16" fill="white"/>
</clipPath>
</defs>
</svg>
