<svg width="14" height="14" viewBox="0 0 14 14" fill="none" xmlns="http://www.w3.org/2000/svg">
<g clip-path="url(#clip0_658_4419)">
<path d="M8.75 10.5C8.75 11.4665 9.5335 12.25 10.5 12.25C11.4665 12.25 12.25 11.4665 12.25 10.5C12.25 9.5335 11.4665 8.75 10.5 8.75C9.5335 8.75 8.75 9.5335 8.75 10.5ZM8.75 10.5C7.35761 10.5 6.02225 9.94688 5.03769 8.96231C4.05312 7.97774 3.5 6.64239 3.5 5.25M3.5 5.25C4.4665 5.25 5.25 4.4665 5.25 3.5C5.25 2.5335 4.4665 1.75 3.5 1.75C2.5335 1.75 1.75 2.5335 1.75 3.5C1.75 4.4665 2.5335 5.25 3.5 5.25ZM3.5 5.25L3.5 12.25" stroke="white" stroke-width="1.6" stroke-linecap="round" stroke-linejoin="round"/>
</g>
<defs>
<clipPath id="clip0_658_4419">
<rect width="14" height="14" fill="white"/>
</clipPath>
</defs>
</svg>
