<svg width="216" height="216" viewBox="0 0 216 216" fill="none" xmlns="http://www.w3.org/2000/svg">
<defs>
    <filter id="outer-stroke" x="-10%" y="-10%" width="120%" height="120%">
      <feMorphology operator="dilate" radius="4" in="SourceAlpha" result="OUTLINE"/>
      <feFlood flood-color="#00FF59"/>
      <feComposite in2="OUTLINE" operator="in"/>
      <feMerge>
        <feMergeNode/>
        <feMergeNode in="SourceGraphic"/>
      </feMerge>
    </filter>
  </defs>
<path d="M202.755 20.3955C184.065 34.7641 159.183 40.6073 134.552 34.0072C133.753 33.7932 133.005 33.4918 132.219 33.2553C131.775 33.1216 131.341 32.9699 130.901 32.8291C123.658 30.6388 115.976 29.4398 108 29.4398C64.4776 29.4398 29.4397 64.4777 29.4397 108C29.4397 151.522 64.4776 186.56 108 186.56C151.522 186.56 186.56 151.522 186.56 108C186.56 102.696 186.022 97.5254 185.029 92.5216C184.945 92.192 184.896 91.8625 184.816 91.5328C178.452 65.3477 185.922 39.043 202.755 20.3955Z" fill="#C5FF75"/>
<path d="M171.249 51.7598C164.402 58.6067 157.001 63.2318 151.321 64.6763L145.871 70.129C145.756 72.1461 144.958 74.1339 143.412 75.6833C141.861 77.2376 139.869 78.0391 137.846 78.1543L132.441 83.5585L126.139 89.8607L108 108L91.1701 91.17L84.868 84.8678L82.7939 82.7937C79.771 83.9028 76.2621 83.2653 73.8247 80.8334C76.2667 83.2698 76.9104 86.7878 75.7996 89.8171L79.0571 93.0747L85.8385 99.856L105.49 119.508C107.147 121.161 107.979 123.314 108 125.474C108 125.48 108.002 125.486 108.003 125.493C108.019 123.332 108.846 121.177 110.5 119.52L132.052 97.9658L138.664 91.3539L144.872 85.1461C144.993 83.1399 145.788 81.1646 147.326 79.6233C148.868 78.077 150.85 77.2767 152.863 77.1547L158.333 71.6851C159.778 66.0053 164.403 58.6058 171.249 51.7598Z" fill="#141414"/>
<path d="M109.326 74.4561C103.64 74.4561 98.2989 75.855 93.6071 78.3139C93.0231 78.62 92.4472 78.9362 91.884 79.2747C90.1933 80.2907 88.5981 81.4502 87.1162 82.7356L90.2818 85.9011L93.4474 89.0667L96.5259 92.1452C95.1013 90.7239 95.0997 88.4341 96.521 87.0096C96.665 86.8653 96.8184 86.7375 96.9784 86.6224C97.2228 86.4466 97.4818 86.3017 97.7529 86.194C97.8002 86.1691 97.8483 86.146 97.8957 86.1214C101.314 84.3477 105.194 83.3382 109.326 83.3382C112.371 83.3382 115.276 83.8889 117.961 84.8895C119.003 85.2777 120.011 85.7368 120.982 86.2545C121.921 86.7554 122.828 87.3108 123.692 87.922L130.07 81.5424L134.518 77.0917C132.68 78.7144 130.328 79.4193 128.041 79.1948C127.042 79.0967 126.058 78.8162 125.135 78.3647C124.99 78.2956 124.849 78.2178 124.706 78.1445V78.142C120.097 75.7897 114.877 74.4561 109.326 74.4561Z" fill="#141414"/>
<path d="M144.01 90.3908L140.145 94.2534L133.228 101.173C133.577 102.329 133.852 103.519 134.039 104.738C134.22 105.924 134.319 107.138 134.319 108.378C134.319 108.538 134.308 108.695 134.305 108.854C134.158 116.721 130.42 123.663 124.663 128.146C121.276 130.782 117.196 132.554 112.727 133.16C111.612 133.311 110.483 133.417 109.326 133.417C108.878 133.417 108.442 133.374 108 133.351C106.61 133.279 105.249 133.111 103.929 132.821C98.8228 131.702 94.3239 129.022 90.9208 125.309C87.7304 121.829 85.5097 117.445 84.6888 112.569C84.6639 112.461 84.648 112.352 84.6332 112.243C84.5568 111.677 84.6131 111.1 84.805 110.556C84.9798 110.06 85.2546 109.591 85.6521 109.193C87.0734 107.769 89.3631 107.765 90.7877 109.186L84.8849 103.283L77.7163 96.1143C76.2387 99.9155 75.405 104.041 75.405 108.377C75.405 127.17 90.5338 142.299 109.326 142.299C128.119 142.299 143.247 127.17 143.247 108.377C143.247 105.76 142.939 103.223 142.374 100.785C142.235 100.189 142.081 99.5975 141.912 99.0137C141.638 98.1298 141.59 97.718 141.544 97.2325C141.312 94.7903 142.134 92.2709 144.01 90.3908Z" fill="#141414"/>
</svg>
