<svg width="528" height="618" viewBox="0 0 528 618" fill="none" xmlns="http://www.w3.org/2000/svg">
<path d="M503.646 0.0078125C517.154 0.350191 528 11.4087 528 25V593L527.992 593.646C527.65 607.154 516.591 618 503 618H25C11.4087 618 0.350187 607.154 0.0078125 593.646L0 593V25C6.34229e-07 11.4087 10.8457 0.350187 24.3545 0.0078125L25 0H156.749C156.931 1.00493 157.128 2.00491 157.338 3H25C12.8497 3 3 12.8497 3 25V593C3 605.15 12.8497 615 25 615H503C515.15 615 525 605.15 525 593V25C525 12.8497 515.15 3 503 3H369.662C369.872 2.00491 370.069 1.00493 370.251 0H503L503.646 0.0078125Z" fill="#C5FF75"/>
<path d="M371.777 0C362.573 51.4496 317.597 90.5 263.5 90.5C209.403 90.5 164.427 51.4496 155.223 0H158.274C167.441 49.7833 211.065 87.5 263.5 87.5C315.935 87.5 359.559 49.7833 368.726 0H371.777Z" fill="#C5FF75"/>
</svg>
