<svg width="100" height="100" viewBox="0 0 100 100" fill="none" xmlns="http://www.w3.org/2000/svg">
<path d="M89.0061 4.00002C84.6484 8.35774 79.9381 11.3014 76.323 12.2208L72.8542 15.6911C72.7811 16.975 72.2731 18.2401 71.2892 19.2262C70.3022 20.2155 69.0343 20.7256 67.7464 20.7989L64.3069 24.2384L60.2958 28.2495L48.751 39.7943L38.0396 29.0828L34.0285 25.0718L32.7085 23.7517C30.7845 24.4576 28.5513 24.0518 27 22.504C28.5542 24.0547 28.9639 26.2938 28.2569 28.2217L30.3302 30.295L34.6462 34.611L47.1537 47.1185C48.2083 48.1707 48.7373 49.5408 48.751 50.9155C48.7511 50.9194 48.7525 50.9237 48.7526 50.9278C48.7628 49.5526 49.2897 48.1812 50.3422 47.1262L64.0589 33.408L68.2671 29.1998L72.218 25.2489C72.2955 23.972 72.8012 22.7148 73.7799 21.7339C74.7618 20.7497 76.0232 20.2404 77.3042 20.1627L80.7854 16.6816C81.7051 13.0666 84.6489 8.35719 89.0061 4.00002Z" fill="var(--color-icon)"/>
<path d="M49.5951 18.4454C45.9758 18.4454 42.5767 19.3357 39.5906 20.9006C39.2189 21.0955 38.8524 21.2967 38.4939 21.5122C37.4179 22.1588 36.4026 22.8968 35.4595 23.7148L37.4742 25.7296L39.489 27.7443L41.4483 29.7036C40.5416 28.7991 40.5406 27.3417 41.4452 26.4351C41.5368 26.3432 41.6345 26.2619 41.7363 26.1886C41.8918 26.0767 42.0567 25.9845 42.2292 25.916C42.2593 25.9001 42.2899 25.8855 42.3201 25.8698C44.4957 24.7409 46.9651 24.0984 49.5951 24.0984C51.5332 24.0984 53.3819 24.4489 55.091 25.0857C55.7542 25.3328 56.3954 25.625 57.0134 25.9545C57.6113 26.2733 58.1884 26.6268 58.7385 27.0158L62.7973 22.9554L65.6284 20.1228C64.4586 21.1555 62.9619 21.6042 61.5065 21.4613C60.8701 21.3989 60.244 21.2203 59.6566 20.933C59.5643 20.889 59.4747 20.8395 59.3839 20.7928V20.7912C56.4502 19.2941 53.1281 18.4454 49.5951 18.4454Z" fill="var(--color-icon)"/>
<path d="M71.6697 28.587L69.2097 31.0454L64.8075 35.4492C65.0294 36.1854 65.2046 36.9423 65.3235 37.7181C65.4392 38.473 65.5022 39.2457 65.5022 40.0348C65.5022 40.1367 65.4951 40.2368 65.4929 40.3382C65.3996 45.3449 63.0206 49.7631 59.3563 52.6162C57.2009 54.2944 54.6038 55.4223 51.7593 55.8078C51.0501 55.9039 50.3315 55.971 49.5952 55.971C49.3102 55.971 49.0323 55.9441 48.7511 55.9295C47.8664 55.8833 47 55.7762 46.1602 55.5921C42.9102 54.8799 40.0469 53.1739 37.8809 50.8109C35.8504 48.5957 34.437 45.8056 33.9146 42.7026C33.8987 42.6337 33.8886 42.5646 33.8791 42.4947C33.8306 42.1344 33.8663 41.7676 33.9885 41.4211C34.0998 41.1055 34.2747 40.8074 34.5276 40.5539C35.4322 39.6472 36.8896 39.6447 37.7962 40.5491L34.0393 36.7923L29.4769 32.2298C28.5365 34.6491 28.0059 37.2749 28.0059 40.0347C28.0059 51.9952 37.6346 61.624 49.5952 61.624C61.5557 61.624 71.1845 51.9952 71.1845 40.0347C71.1845 38.3691 70.9883 36.7543 70.6284 35.2026C70.5404 34.823 70.4419 34.4467 70.3342 34.0751C70.1604 33.5125 70.1293 33.2504 70.1001 32.9414C69.9529 31.3871 70.4757 29.7836 71.6697 28.587Z" fill="var(--color-icon)"/>
</svg>
