<svg width="20" height="20" viewBox="0 0 20 20" fill="none" xmlns="http://www.w3.org/2000/svg">
<path d="M12.1951 15C12.1951 16.3807 13.2871 17.5 14.6341 17.5C15.9812 17.5 17.0732 16.3807 17.0732 15C17.0732 13.6193 15.9812 12.5 14.6341 12.5C13.2871 12.5 12.1951 13.6193 12.1951 15ZM12.1951 15C10.2545 15 8.39339 14.2098 7.02117 12.8033C5.64895 11.3968 4.87805 9.48912 4.87805 7.5M4.87805 7.5C6.22509 7.5 7.31707 6.38071 7.31707 5C7.31707 3.61929 6.22509 2.5 4.87805 2.5C3.53101 2.5 2.43903 3.61929 2.43903 5C2.43903 6.38071 3.53101 7.5 4.87805 7.5ZM4.87805 7.5L4.87805 17.5" stroke="white" stroke-width="1.6" stroke-linecap="round" stroke-linejoin="round"/>
</svg>
