<svg width="40" height="40" viewBox="0 0 40 40" fill="none" xmlns="http://www.w3.org/2000/svg">
<path d="M25 30C25 32.7614 27.2386 35 30 35C32.7614 35 35 32.7614 35 30C35 27.2386 32.7614 25 30 25C27.2386 25 25 27.2386 25 30ZM25 30C21.0218 30 17.2064 28.4196 14.3934 25.6066C11.5804 22.7936 10 18.9782 10 15M10 15C12.7614 15 15 12.7614 15 10C15 7.23858 12.7614 5 10 5C7.23858 5 5 7.23858 5 10C5 12.7614 7.23858 15 10 15ZM10 15V35" stroke="var(--color-icon)" stroke-width="4" stroke-linecap="round" stroke-linejoin="round"/>
</svg>
