<svg width="40" height="40" viewBox="0 0 40 40" fill="none" xmlns="http://www.w3.org/2000/svg">
<path d="M6.38891 27.6528C5.78252 27.6528 5.26752 27.4405 4.84391 27.0158C4.4203 26.5913 4.2085 26.0659 4.2085 25.4395C4.2085 24.8317 4.4203 24.3171 4.84391 23.8958C5.26752 23.4744 5.78252 23.2637 6.38891 23.2637H15.7639C16.3706 23.2637 16.8857 23.476 17.3093 23.9008C17.7329 24.3252 17.9447 24.8413 17.9447 25.4491C17.9447 26.0755 17.7329 26.5994 17.3093 27.0208C16.8857 27.4421 16.3706 27.6528 15.7639 27.6528H6.38891ZM6.38891 19.7499C5.78252 19.7499 5.26752 19.5377 4.84391 19.1133C4.4203 18.6885 4.2085 18.1723 4.2085 17.5645C4.2085 16.9567 4.4203 16.4421 4.84391 16.0208C5.26752 15.5994 5.78252 15.3887 6.38891 15.3887H22.3472C22.9539 15.3887 23.4691 15.601 23.8927 16.0258C24.3163 16.4502 24.5281 16.9663 24.5281 17.5741C24.5281 18.1821 24.3163 18.6967 23.8927 19.1178C23.4691 19.5392 22.9539 19.7499 22.3472 19.7499H6.38891ZM6.38891 11.8749C5.78252 11.8749 5.26752 11.6627 4.84391 11.2383C4.4203 10.8135 4.2085 10.2973 4.2085 9.6895C4.2085 9.08173 4.4203 8.56714 4.84391 8.14575C5.26752 7.72437 5.78252 7.51367 6.38891 7.51367H22.3472C22.9539 7.51367 23.4691 7.72603 23.8927 8.15075C24.3163 8.5752 24.5281 9.09131 24.5281 9.69909C24.5281 10.3071 24.3163 10.8217 23.8927 11.2428C23.4691 11.6642 22.9539 11.8749 22.3472 11.8749H6.38891ZM27.7047 32.8749C27.4295 32.8749 27.1599 32.8217 26.896 32.7153C26.6321 32.6087 26.3936 32.4489 26.1806 32.2362L22.3752 28.4303C21.9493 28.0045 21.741 27.4906 21.7502 26.8887C21.7593 26.287 21.9816 25.7685 22.4168 25.3333C22.8427 24.9074 23.3539 24.6945 23.9506 24.6945C24.5472 24.6945 25.0499 24.9074 25.4585 25.3333L27.7085 27.5695L33.7085 21.6112C34.1399 21.1851 34.6436 20.9698 35.2198 20.9653C35.7956 20.9606 36.3047 21.1759 36.7472 21.6112C37.1936 22.0462 37.4123 22.567 37.4031 23.1737C37.3936 23.7801 37.1714 24.3009 36.7364 24.7362L29.2781 32.2362C29.065 32.4489 28.8229 32.6087 28.5518 32.7153C28.281 32.8217 27.9986 32.8749 27.7047 32.8749Z" fill="currentColor"/>
</svg>
